<svg xmlns="http://www.w3.org/2000/svg" xmlns:xlink="http://www.w3.org/1999/xlink" width="28" height="20" viewBox="0 0 28 20"><mask id="a" fill="#fff"><rect width="28" height="20" fill="#fff" fill-rule="evenodd" rx="2"/></mask><g fill="none" fill-rule="evenodd"><rect width="27.5" height="19.5" x=".25" y=".25" stroke="#f5f5f5" stroke-width=".5" rx="2"/><path fill="#083d7a" d="m0 0h12v8h-12z" mask="url(#a)"/><path fill="#083d7a" d="m16 12h12v8h-12z" mask="url(#a)"/><path fill="#df1e35" d="m0 12h12v8h-12z" mask="url(#a)"/><path fill="#df1e35" d="m16 0h12v8h-12z" mask="url(#a)"/><path stroke="#0f6d1a" stroke-width=".667" d="m15.6614489 10.1328534c-.0321193.4072662-.2106351.7733554-.4829376 1.0456579-.3016073.3016073-.718274.4881554-1.1785113.4881554s-.876904-.1865481-1.1785113-.4881554-.4881554-.718274-.4881554-1.1785113c0-.46023729.1865481-.87690396.4881554-1.1785113.2723025-.27230251.6383917-.45081832 1.0456579-.48293762z" mask="url(#a)" transform="matrix(.70710678 -.70710678 .70710678 .70710678 -2.970563 12.828427)"/><circle cx="14" cy="10" r="1" fill="#042f60" mask="url(#a)"/></g></svg>