<svg xmlns="http://www.w3.org/2000/svg" xmlns:xlink="http://www.w3.org/1999/xlink" width="28" height="20" viewBox="0 0 28 20"><defs><path id="a" d="m.66666667 3.83333333v-1.15898132c0-.74062416.59021377-1.34101868 1.33194208-1.34101868h1.33611584c.73561129 0 1.33194208.58758327 1.33194208 1.34101868v1.15898132c0 1.78571429-2 2.5-2 2.5s-2-.71428571-2-2.5z"/><mask id="b" fill="#fff"><rect width="28" height="20" fill="#fff" fill-rule="evenodd" rx="2"/></mask><mask id="c" fill="#fff"><use fill="#fff" fill-rule="evenodd" xlink:href="#a"/></mask></defs><g fill="none" fill-rule="evenodd"><rect width="27.5" height="19.5" x=".25" y=".25" stroke="#f5f5f5" stroke-width=".5" rx="2"/><path fill="#e3243b" d="m13.325694-14.193465h2.666667v49.333333h-2.666667z" mask="url(#b)" transform="matrix(.57357644 -.81915204 .81915204 .57357644 -2.32819 16.473992)"/><path fill="#e3243b" d="m13.325694-14.193465h2.666667v49.333333h-2.666667z" mask="url(#b)" transform="matrix(-.57357644 -.81915204 -.81915204 .57357644 31.646244 16.473992)"/><g mask="url(#b)"><g fill-rule="evenodd" transform="translate(12 1.333333)"><path fill="#faef32" d="m3.54383226 0-.17938454.85475437 1.27584153-.14245905-.98681129.56983626.08656613.05086842h-2.148l.08781129-.05086842-.98681129-.56983628 1.27584157.14245907-.17938459-.85475437.87716559.7122953z"/><use fill="#e3243b" xlink:href="#a"/><g fill="#faef32"><rect width="1" height="1" x="2.333" y="5.333" mask="url(#c)" rx=".5"/><rect width="2.667" height="1" x="1.333" y="4" mask="url(#c)" rx=".5"/><rect width="2.667" height="1" x="1.333" y="2.667" mask="url(#c)" rx=".5"/></g></g></g></g></svg>